<?xml version="1.0" encoding="UTF-8" standalone="no"?>
<!DOCTYPE svg PUBLIC "-//W3C//DTD SVG 1.1//EN"
 "http://www.w3.org/Graphics/SVG/1.1/DTD/svg11.dtd">
<!-- Generated by graphviz version 2.40.1 (20161225.0304)
 -->
<!-- Title: minimal_nonplanar_graphs Pages: 1 -->
<svg width="682pt" height="170pt"
 viewBox="0.00 0.00 682.00 170.00" xmlns="http://www.w3.org/2000/svg" xmlns:xlink="http://www.w3.org/1999/xlink">
<g id="graph0" class="graph" transform="scale(1 1) rotate(0) translate(4 166)">
<title>minimal_nonplanar_graphs</title>
<polygon fill="#ffffff" stroke="transparent" points="-4,4 -4,-166 678,-166 678,4 -4,4"/>
<g id="clust1" class="cluster">
<title>cluster_infura</title>
<polygon fill="#add8e6" stroke="#add8e6" points="8,-8 8,-154 222,-154 222,-8 8,-8"/>
<text text-anchor="middle" x="115" y="-138.8" font-family="Helvetica,sans-Serif" font-size="14.00" fill="#000000">centralized</text>
</g>
<g id="clust2" class="cluster">
<title>cluster_1</title>
<polygon fill="#add8e6" stroke="#add8e6" points="230,-8 230,-154 444,-154 444,-8 230,-8"/>
<text text-anchor="middle" x="337" y="-138.8" font-family="Helvetica,sans-Serif" font-size="14.00" fill="#000000">centralized per Dapp</text>
</g>
<g id="clust3" class="cluster">
<title>cluster_0</title>
<polygon fill="#add8e6" stroke="#add8e6" points="452,-8 452,-154 666,-154 666,-8 452,-8"/>
<text text-anchor="middle" x="559" y="-138.8" font-family="Helvetica,sans-Serif" font-size="14.00" fill="#000000">Incubed</text>
</g>
<!-- i -->
<g id="node1" class="node">
<title>i</title>
<ellipse fill="#ffffff" stroke="#ffffff" cx="115" cy="-106" rx="32.4585" ry="18"/>
<text text-anchor="middle" x="115" y="-101.8" font-family="Helvetica,sans-Serif" font-size="14.00" fill="#000000">infura</text>
</g>
<!-- __a -->
<g id="node2" class="node">
<title>__a</title>
<ellipse fill="#ffffff" stroke="#ffffff" cx="43" cy="-34" rx="27" ry="18"/>
<text text-anchor="middle" x="43" y="-29.8" font-family="Helvetica,sans-Serif" font-size="14.00" fill="#000000">a</text>
</g>
<!-- i&#45;&#45;__a -->
<g id="edge1" class="edge">
<title>i&#45;&#45;__a</title>
<path fill="none" stroke="#000000" d="M99.0209,-90.0209C86.9235,-77.9235 70.4036,-61.4036 58.4403,-49.4403"/>
</g>
<!-- __b -->
<g id="node3" class="node">
<title>__b</title>
<ellipse fill="#ffffff" stroke="#ffffff" cx="115" cy="-34" rx="27" ry="18"/>
<text text-anchor="middle" x="115" y="-29.8" font-family="Helvetica,sans-Serif" font-size="14.00" fill="#000000">b</text>
</g>
<!-- i&#45;&#45;__b -->
<g id="edge2" class="edge">
<title>i&#45;&#45;__b</title>
<path fill="none" stroke="#000000" d="M115,-87.8314C115,-77 115,-63.2876 115,-52.4133"/>
</g>
<!-- __c -->
<g id="node4" class="node">
<title>__c</title>
<ellipse fill="#ffffff" stroke="#ffffff" cx="187" cy="-34" rx="27" ry="18"/>
<text text-anchor="middle" x="187" y="-29.8" font-family="Helvetica,sans-Serif" font-size="14.00" fill="#000000">c</text>
</g>
<!-- i&#45;&#45;__c -->
<g id="edge3" class="edge">
<title>i&#45;&#45;__c</title>
<path fill="none" stroke="#000000" d="M130.9791,-90.0209C143.0765,-77.9235 159.5964,-61.4036 171.5597,-49.4403"/>
</g>
<!-- _C -->
<g id="node5" class="node">
<title>_C</title>
<ellipse fill="#ffffff" stroke="#ffffff" cx="409" cy="-106" rx="27" ry="18"/>
<text text-anchor="middle" x="409" y="-101.8" font-family="Helvetica,sans-Serif" font-size="14.00" fill="#000000">C</text>
</g>
<!-- _c -->
<g id="node8" class="node">
<title>_c</title>
<ellipse fill="#ffffff" stroke="#ffffff" cx="409" cy="-34" rx="27" ry="18"/>
<text text-anchor="middle" x="409" y="-29.8" font-family="Helvetica,sans-Serif" font-size="14.00" fill="#000000">c</text>
</g>
<!-- _C&#45;&#45;_c -->
<g id="edge4" class="edge">
<title>_C&#45;&#45;_c</title>
<path fill="none" stroke="#000000" d="M409,-87.8314C409,-77 409,-63.2876 409,-52.4133"/>
</g>
<!-- _B -->
<g id="node6" class="node">
<title>_B</title>
<ellipse fill="#ffffff" stroke="#ffffff" cx="337" cy="-106" rx="27" ry="18"/>
<text text-anchor="middle" x="337" y="-101.8" font-family="Helvetica,sans-Serif" font-size="14.00" fill="#000000">B</text>
</g>
<!-- _b -->
<g id="node9" class="node">
<title>_b</title>
<ellipse fill="#ffffff" stroke="#ffffff" cx="337" cy="-34" rx="27" ry="18"/>
<text text-anchor="middle" x="337" y="-29.8" font-family="Helvetica,sans-Serif" font-size="14.00" fill="#000000">b</text>
</g>
<!-- _B&#45;&#45;_b -->
<g id="edge6" class="edge">
<title>_B&#45;&#45;_b</title>
<path fill="none" stroke="#000000" d="M337,-87.8314C337,-77 337,-63.2876 337,-52.4133"/>
</g>
<!-- _A -->
<g id="node7" class="node">
<title>_A</title>
<ellipse fill="#ffffff" stroke="#ffffff" cx="265" cy="-106" rx="27" ry="18"/>
<text text-anchor="middle" x="265" y="-101.8" font-family="Helvetica,sans-Serif" font-size="14.00" fill="#000000">A</text>
</g>
<!-- _a -->
<g id="node10" class="node">
<title>_a</title>
<ellipse fill="#ffffff" stroke="#ffffff" cx="265" cy="-34" rx="27" ry="18"/>
<text text-anchor="middle" x="265" y="-29.8" font-family="Helvetica,sans-Serif" font-size="14.00" fill="#000000">a</text>
</g>
<!-- _A&#45;&#45;_a -->
<g id="edge5" class="edge">
<title>_A&#45;&#45;_a</title>
<path fill="none" stroke="#000000" d="M265,-87.8314C265,-77 265,-63.2876 265,-52.4133"/>
</g>
<!-- A -->
<g id="node11" class="node">
<title>A</title>
<ellipse fill="#ffffff" stroke="#ffffff" cx="559" cy="-106" rx="27" ry="18"/>
<text text-anchor="middle" x="559" y="-101.8" font-family="Helvetica,sans-Serif" font-size="14.00" fill="#000000">A</text>
</g>
<!-- a -->
<g id="node14" class="node">
<title>a</title>
<ellipse fill="#ffffff" stroke="#ffffff" cx="559" cy="-34" rx="27" ry="18"/>
<text text-anchor="middle" x="559" y="-29.8" font-family="Helvetica,sans-Serif" font-size="14.00" fill="#000000">a</text>
</g>
<!-- A&#45;&#45;a -->
<g id="edge7" class="edge">
<title>A&#45;&#45;a</title>
<path fill="none" stroke="#000000" d="M559,-87.8314C559,-77 559,-63.2876 559,-52.4133"/>
</g>
<!-- b -->
<g id="node15" class="node">
<title>b</title>
<ellipse fill="#ffffff" stroke="#ffffff" cx="631" cy="-34" rx="27" ry="18"/>
<text text-anchor="middle" x="631" y="-29.8" font-family="Helvetica,sans-Serif" font-size="14.00" fill="#000000">b</text>
</g>
<!-- A&#45;&#45;b -->
<g id="edge8" class="edge">
<title>A&#45;&#45;b</title>
<path fill="none" stroke="#000000" d="M574.2693,-90.7307C586.488,-78.512 603.5398,-61.4602 615.7527,-49.2473"/>
</g>
<!-- c -->
<g id="node16" class="node">
<title>c</title>
<ellipse fill="#ffffff" stroke="#ffffff" cx="487" cy="-34" rx="27" ry="18"/>
<text text-anchor="middle" x="487" y="-29.8" font-family="Helvetica,sans-Serif" font-size="14.00" fill="#000000">c</text>
</g>
<!-- A&#45;&#45;c -->
<g id="edge9" class="edge">
<title>A&#45;&#45;c</title>
<path fill="none" stroke="#000000" d="M543.7307,-90.7307C531.512,-78.512 514.4602,-61.4602 502.2473,-49.2473"/>
</g>
<!-- B -->
<g id="node12" class="node">
<title>B</title>
<ellipse fill="#ffffff" stroke="#ffffff" cx="487" cy="-106" rx="27" ry="18"/>
<text text-anchor="middle" x="487" y="-101.8" font-family="Helvetica,sans-Serif" font-size="14.00" fill="#000000">B</text>
</g>
<!-- B&#45;&#45;a -->
<g id="edge10" class="edge">
<title>B&#45;&#45;a</title>
<path fill="none" stroke="#000000" d="M502.2693,-90.7307C514.488,-78.512 531.5398,-61.4602 543.7527,-49.2473"/>
</g>
<!-- B&#45;&#45;b -->
<g id="edge11" class="edge">
<title>B&#45;&#45;b</title>
<path fill="none" stroke="#000000" d="M508.8705,-95.0647C536.0934,-81.4533 582.297,-58.3515 609.3955,-44.8022"/>
</g>
<!-- B&#45;&#45;c -->
<g id="edge12" class="edge">
<title>B&#45;&#45;c</title>
<path fill="none" stroke="#000000" d="M487,-87.8314C487,-77 487,-63.2876 487,-52.4133"/>
</g>
<!-- C -->
<g id="node13" class="node">
<title>C</title>
<ellipse fill="#ffffff" stroke="#ffffff" cx="631" cy="-106" rx="27" ry="18"/>
<text text-anchor="middle" x="631" y="-101.8" font-family="Helvetica,sans-Serif" font-size="14.00" fill="#000000">C</text>
</g>
<!-- C&#45;&#45;a -->
<g id="edge13" class="edge">
<title>C&#45;&#45;a</title>
<path fill="none" stroke="#000000" d="M615.7307,-90.7307C603.512,-78.512 586.4602,-61.4602 574.2473,-49.2473"/>
</g>
<!-- C&#45;&#45;b -->
<g id="edge14" class="edge">
<title>C&#45;&#45;b</title>
<path fill="none" stroke="#000000" d="M631,-87.8314C631,-77 631,-63.2876 631,-52.4133"/>
</g>
<!-- C&#45;&#45;c -->
<g id="edge15" class="edge">
<title>C&#45;&#45;c</title>
<path fill="none" stroke="#000000" d="M609.1295,-95.0647C581.9066,-81.4533 535.703,-58.3515 508.6045,-44.8022"/>
</g>
</g>
</svg>
