<?xml version="1.0" encoding="UTF-8" standalone="no"?>
<!DOCTYPE svg PUBLIC "-//W3C//DTD SVG 1.1//EN"
 "http://www.w3.org/Graphics/SVG/1.1/DTD/svg11.dtd">
<!-- Generated by graphviz version 2.40.1 (20161225.0304)
 -->
<!-- Title: minimal_nonplanar_graphs Pages: 1 -->
<svg width="599pt" height="388pt"
 viewBox="0.00 0.00 599.00 388.00" xmlns="http://www.w3.org/2000/svg" xmlns:xlink="http://www.w3.org/1999/xlink">
<g id="graph0" class="graph" transform="scale(1 1) rotate(0) translate(4 384)">
<title>minimal_nonplanar_graphs</title>
<polygon fill="#ffffff" stroke="transparent" points="-4,4 -4,-384 595,-384 595,4 -4,4"/>
<g id="clust1" class="cluster">
<title>cluster_pow</title>
<polygon fill="#add8e6" stroke="#add8e6" points="8,-8 8,-372 200,-372 200,-8 8,-8"/>
<text text-anchor="middle" x="104" y="-356.8" font-family="Helvetica,sans-Serif" font-size="14.00" fill="#000000">Proof or Work</text>
</g>
<g id="clust2" class="cluster">
<title>cluster_poa</title>
<polygon fill="#add8e6" stroke="#add8e6" points="208,-132 208,-372 331,-372 331,-132 208,-132"/>
<text text-anchor="middle" x="269.5" y="-356.8" font-family="Helvetica,sans-Serif" font-size="14.00" fill="#000000">Proof of Authority</text>
</g>
<g id="clust3" class="cluster">
<title>cluster_pos</title>
<polygon fill="#add8e6" stroke="#add8e6" points="339,-132 339,-372 583,-372 583,-132 339,-132"/>
<text text-anchor="middle" x="461" y="-356.8" font-family="Helvetica,sans-Serif" font-size="14.00" fill="#000000">Proof of Stake</text>
</g>
<!-- c -->
<g id="node1" class="node">
<title>c</title>
<ellipse fill="#ffffff" stroke="#ffffff" cx="80" cy="-324" rx="32.9342" ry="18"/>
<text text-anchor="middle" x="80" y="-319.8" font-family="Helvetica,sans-Serif" font-size="14.00" fill="#000000">Client</text>
</g>
<!-- B -->
<g id="node3" class="node">
<title>B</title>
<ellipse fill="#ffffff" stroke="#ffffff" cx="80" cy="-158" rx="39.7078" ry="18"/>
<text text-anchor="middle" x="80" y="-153.8" font-family="Helvetica,sans-Serif" font-size="14.00" fill="#000000">Node B</text>
</g>
<!-- c&#45;&gt;B -->
<g id="edge1" class="edge">
<title>c&#45;&gt;B</title>
<path fill="none" stroke="#000000" d="M78.3336,-305.6848C77.4447,-294.9964 76.4447,-281.2464 76,-269 75.0967,-244.1275 75.0967,-237.8725 76,-213 76.3127,-204.3892 76.8999,-195.0351 77.53,-186.5246"/>
<polygon fill="#000000" stroke="#000000" points="81.038,-186.559 78.3336,-176.3152 74.0596,-186.0097 81.038,-186.559"/>
</g>
<!-- A -->
<g id="node2" class="node">
<title>A</title>
<ellipse fill="#ffffff" stroke="#ffffff" cx="55" cy="-34" rx="39.2406" ry="18"/>
<text text-anchor="middle" x="55" y="-29.8" font-family="Helvetica,sans-Serif" font-size="14.00" fill="#000000">Node A</text>
</g>
<!-- B&#45;&gt;c -->
<g id="edge2" class="edge">
<title>B&#45;&gt;c</title>
<path fill="none" stroke="#000000" d="M80.607,-176.3121C80.7685,-181.9813 80.9201,-188.2483 81,-194 81.5801,-235.7738 81.5801,-246.2262 81,-288 80.9663,-290.4265 80.9198,-292.9447 80.8653,-295.4711"/>
<polygon fill="#000000" stroke="#000000" points="77.3609,-295.6027 80.607,-305.6879 84.3587,-295.7796 77.3609,-295.6027"/>
<text text-anchor="middle" x="111.7412" y="-257.8" font-family="Helvetica,sans-Serif" font-size="14.00" fill="#000000"> response</text>
<text text-anchor="middle" x="111.7412" y="-243.8" font-family="Helvetica,sans-Serif" font-size="14.00" fill="#000000"> + proof &#160;</text>
<text text-anchor="middle" x="111.7412" y="-229.8" font-family="Helvetica,sans-Serif" font-size="14.00" fill="#000000"> + signed</text>
<text text-anchor="middle" x="111.7412" y="-215.8" font-family="Helvetica,sans-Serif" font-size="14.00" fill="#000000"> &#160;&#160;&#160;header</text>
</g>
<!-- B&#45;&gt;A -->
<g id="edge3" class="edge">
<title>B&#45;&gt;A</title>
<path fill="none" stroke="#000000" d="M76.3648,-139.9693C72.236,-119.4903 65.4486,-85.8251 60.633,-61.9395"/>
<polygon fill="#000000" stroke="#000000" points="64.047,-61.1634 58.6396,-52.0524 57.1851,-62.5469 64.047,-61.1634"/>
<text text-anchor="middle" x="82.7861" y="-91.8" font-family="Helvetica,sans-Serif" font-size="14.00" fill="#000000"> sign</text>
</g>
<!-- C -->
<g id="node4" class="node">
<title>C</title>
<ellipse fill="#ffffff" stroke="#ffffff" cx="152" cy="-34" rx="40.1836" ry="18"/>
<text text-anchor="middle" x="152" y="-29.8" font-family="Helvetica,sans-Serif" font-size="14.00" fill="#000000">Node C</text>
</g>
<!-- B&#45;&gt;C -->
<g id="edge4" class="edge">
<title>B&#45;&gt;C</title>
<path fill="none" stroke="#000000" d="M90.1631,-140.4968C102.2622,-119.6596 122.5904,-84.6499 136.618,-60.4912"/>
<polygon fill="#000000" stroke="#000000" points="139.6608,-62.221 141.6554,-51.8157 133.6073,-58.7061 139.6608,-62.221"/>
</g>
<!-- _c -->
<g id="node5" class="node">
<title>_c</title>
<ellipse fill="#ffffff" stroke="#ffffff" cx="254" cy="-324" rx="32.9342" ry="18"/>
<text text-anchor="middle" x="254" y="-319.8" font-family="Helvetica,sans-Serif" font-size="14.00" fill="#000000">Client</text>
</g>
<!-- _B -->
<g id="node6" class="node">
<title>_B</title>
<ellipse fill="#ffffff" stroke="#ffffff" cx="253" cy="-158" rx="31.4984" ry="18"/>
<text text-anchor="middle" x="253" y="-153.8" font-family="Helvetica,sans-Serif" font-size="14.00" fill="#000000">Node</text>
</g>
<!-- _c&#45;&gt;_B -->
<g id="edge5" class="edge">
<title>_c&#45;&gt;_B</title>
<path fill="none" stroke="#000000" d="M246.519,-306.0247C242.5253,-295.4496 238.0253,-281.6996 236,-269 232.0804,-244.4217 232.2834,-237.6098 236,-213 237.373,-203.9083 239.9548,-194.248 242.6991,-185.602"/>
<polygon fill="#000000" stroke="#000000" points="246.0537,-186.6072 245.9327,-176.013 239.4207,-184.3703 246.0537,-186.6072"/>
</g>
<!-- _B&#45;&gt;_c -->
<g id="edge6" class="edge">
<title>_B&#45;&gt;_c</title>
<path fill="none" stroke="#000000" d="M253.1088,-176.0586C253.2823,-204.8575 253.623,-261.4195 253.8292,-295.6526"/>
<polygon fill="#000000" stroke="#000000" points="250.3308,-295.9404 253.8911,-305.9191 257.3307,-295.8982 250.3308,-295.9404"/>
<text text-anchor="middle" x="283.7412" y="-250.8" font-family="Helvetica,sans-Serif" font-size="14.00" fill="#000000"> response</text>
<text text-anchor="middle" x="283.7412" y="-236.8" font-family="Helvetica,sans-Serif" font-size="14.00" fill="#000000"> + proof &#160;</text>
<text text-anchor="middle" x="283.7412" y="-222.8" font-family="Helvetica,sans-Serif" font-size="14.00" fill="#000000"> + header</text>
</g>
<!-- x -->
<g id="node7" class="node">
<title>x</title>
<ellipse fill="#ffffff" stroke="#ffffff" cx="404" cy="-324" rx="32.9342" ry="18"/>
<text text-anchor="middle" x="404" y="-319.8" font-family="Helvetica,sans-Serif" font-size="14.00" fill="#000000">Client</text>
</g>
<!-- N -->
<g id="node8" class="node">
<title>N</title>
<ellipse fill="#ffffff" stroke="#ffffff" cx="378" cy="-158" rx="31.4984" ry="18"/>
<text text-anchor="middle" x="378" y="-153.8" font-family="Helvetica,sans-Serif" font-size="14.00" fill="#000000">Node</text>
</g>
<!-- x&#45;&gt;N -->
<g id="edge7" class="edge">
<title>x&#45;&gt;N</title>
<path fill="none" stroke="#000000" d="M395.2667,-306.6507C390.3943,-296.0592 384.7643,-282.0805 382,-269 376.1752,-241.437 375.6959,-209.1834 376.3579,-186.5694"/>
<polygon fill="#000000" stroke="#000000" points="379.8657,-186.4334 376.7562,-176.3051 372.871,-186.1619 379.8657,-186.4334"/>
</g>
<!-- V -->
<g id="node9" class="node">
<title>V</title>
<ellipse fill="#ffffff" stroke="#ffffff" cx="501" cy="-158" rx="73.6929" ry="18"/>
<text text-anchor="middle" x="501" y="-153.8" font-family="Helvetica,sans-Serif" font-size="14.00" fill="#000000">Node (Validator)</text>
</g>
<!-- x&#45;&gt;V -->
<g id="edge9" class="edge">
<title>x&#45;&gt;V</title>
<path fill="none" stroke="#000000" d="M423.0093,-309.1064C434.9822,-298.8974 450.009,-284.4471 460,-269 476.7381,-243.1213 487.9388,-209.4532 494.3439,-186.0129"/>
<polygon fill="#000000" stroke="#000000" points="497.8112,-186.5874 496.952,-176.0274 491.0384,-184.8183 497.8112,-186.5874"/>
<text text-anchor="middle" x="508.7412" y="-236.8" font-family="Helvetica,sans-Serif" font-size="14.00" fill="#000000"> header</text>
</g>
<!-- N&#45;&gt;x -->
<g id="edge8" class="edge">
<title>N&#45;&gt;x</title>
<path fill="none" stroke="#000000" d="M380.8285,-176.0586C385.3391,-204.8575 394.1982,-261.4195 399.56,-295.6526"/>
<polygon fill="#000000" stroke="#000000" points="396.1627,-296.5812 401.168,-305.9191 403.0784,-295.4979 396.1627,-296.5812"/>
<text text-anchor="middle" x="425.7412" y="-250.8" font-family="Helvetica,sans-Serif" font-size="14.00" fill="#000000"> response</text>
<text text-anchor="middle" x="425.7412" y="-236.8" font-family="Helvetica,sans-Serif" font-size="14.00" fill="#000000"> + proof &#160;</text>
<text text-anchor="middle" x="425.7412" y="-222.8" font-family="Helvetica,sans-Serif" font-size="14.00" fill="#000000"> + header</text>
</g>
</g>
</svg>
