<?xml version="1.0" encoding="UTF-8" standalone="no"?>
<!DOCTYPE svg PUBLIC "-//W3C//DTD SVG 1.1//EN"
 "http://www.w3.org/Graphics/SVG/1.1/DTD/svg11.dtd">
<!-- Generated by graphviz version 2.40.1 (20161225.0304)
 -->
<!-- Title: minimal_nonplanar_graphs Pages: 1 -->
<svg width="360pt" height="314pt"
 viewBox="0.00 0.00 359.55 314.00" xmlns="http://www.w3.org/2000/svg" xmlns:xlink="http://www.w3.org/1999/xlink">
<g id="graph0" class="graph" transform="scale(1 1) rotate(0) translate(4 310)">
<title>minimal_nonplanar_graphs</title>
<polygon fill="#ffffff" stroke="transparent" points="-4,4 -4,-310 355.5453,-310 355.5453,4 -4,4"/>
<g id="clust2" class="cluster">
<title>cluster_cloud</title>
<polygon fill="#add8e6" stroke="#add8e6" points="251.3633,-51 251.3633,-233 343.5453,-233 343.5453,-51 251.3633,-51"/>
<text text-anchor="middle" x="297.4543" y="-217.8" font-family="Helvetica,sans-Serif" font-size="14.00" fill="#000000">cloud</text>
</g>
<g id="clust3" class="cluster">
<title>cluster_registry</title>
<polygon fill="#add8e6" stroke="#add8e6" points="123,-33 123,-291 231.3633,-291 231.3633,-33 123,-33"/>
<text text-anchor="middle" x="177.1816" y="-275.8" font-family="Helvetica,sans-Serif" font-size="14.00" fill="#000000">ServerRegistry</text>
</g>
<g id="clust4" class="cluster">
<title>cluster_client_registry</title>
<polygon fill="#add8e6" stroke="#add8e6" points="0,-8 0,-298 103,-298 103,-8 0,-8"/>
<text text-anchor="middle" x="51.5" y="-282.8" font-family="Helvetica,sans-Serif" font-size="14.00" fill="#000000">ClientRegistry</text>
</g>
<!-- A -->
<g id="node1" class="node">
<title>A</title>
<ellipse fill="#ffffff" stroke="#ffffff" cx="297.4543" cy="-185" rx="37.0975" ry="18"/>
<text text-anchor="middle" x="297.4543" y="-181.4" font-family="Helvetica,sans-Serif" font-size="12.00" fill="#000000">Server A</text>
</g>
<!-- B -->
<g id="node2" class="node">
<title>B</title>
<ellipse fill="#ffffff" stroke="#ffffff" cx="297.4543" cy="-131" rx="37.8867" ry="18"/>
<text text-anchor="middle" x="297.4543" y="-127.4" font-family="Helvetica,sans-Serif" font-size="12.00" fill="#000000">Server B</text>
</g>
<!-- C -->
<g id="node3" class="node">
<title>C</title>
<ellipse fill="#ffffff" stroke="#ffffff" cx="297.4543" cy="-77" rx="38.1822" ry="18"/>
<text text-anchor="middle" x="297.4543" y="-73.4" font-family="Helvetica,sans-Serif" font-size="12.00" fill="#000000">Server C</text>
</g>
<!-- sa -->
<g id="node4" class="node">
<title>sa</title>
<polygon fill="none" stroke="#000000" points="134,-200 134,-260 219.3633,-260 219.3633,-200 134,-200"/>
<text text-anchor="middle" x="176.6816" y="-246.4" font-family="Helvetica,sans-Serif" font-size="12.00" fill="#000000">Server A</text>
<polyline fill="none" stroke="#000000" points="134,-240 219.3633,-240 "/>
<text text-anchor="middle" x="176.6816" y="-226.4" font-family="Helvetica,sans-Serif" font-size="12.00" fill="#000000">cap:10</text>
<polyline fill="none" stroke="#000000" points="134,-220 219.3633,-220 "/>
<text text-anchor="middle" x="176.6816" y="-206.4" font-family="Helvetica,sans-Serif" font-size="12.00" fill="#000000">http://rpc.s1..</text>
</g>
<!-- sa&#45;&gt;A -->
<g id="edge1" class="edge">
<title>sa:f2&#45;&gt;A</title>
<path fill="none" stroke="#000000" d="M219.6816,-210C233.8089,-210 248.717,-206.215 261.6594,-201.5906"/>
<polygon fill="#000000" stroke="#000000" points="263.0569,-204.803 271.1279,-197.9394 260.5383,-198.2717 263.0569,-204.803"/>
</g>
<!-- sb -->
<g id="node5" class="node">
<title>sb</title>
<polygon fill="none" stroke="#000000" points="134,-121 134,-181 219.3633,-181 219.3633,-121 134,-121"/>
<text text-anchor="middle" x="176.6816" y="-167.4" font-family="Helvetica,sans-Serif" font-size="12.00" fill="#000000">Server B</text>
<polyline fill="none" stroke="#000000" points="134,-161 219.3633,-161 "/>
<text text-anchor="middle" x="176.6816" y="-147.4" font-family="Helvetica,sans-Serif" font-size="12.00" fill="#000000">cap:100</text>
<polyline fill="none" stroke="#000000" points="134,-141 219.3633,-141 "/>
<text text-anchor="middle" x="176.6816" y="-127.4" font-family="Helvetica,sans-Serif" font-size="12.00" fill="#000000">http://rpc.s2..</text>
</g>
<!-- sb&#45;&gt;B -->
<g id="edge2" class="edge">
<title>sb:f2&#45;&gt;B</title>
<path fill="none" stroke="#000000" d="M219.6816,-131C229.302,-131 239.5916,-131 249.4329,-131"/>
<polygon fill="#000000" stroke="#000000" points="249.4794,-134.5001 259.4794,-131 249.4793,-127.5001 249.4794,-134.5001"/>
</g>
<!-- sc -->
<g id="node6" class="node">
<title>sc</title>
<polygon fill="none" stroke="#000000" points="134,-42 134,-102 219.3633,-102 219.3633,-42 134,-42"/>
<text text-anchor="middle" x="176.6816" y="-88.4" font-family="Helvetica,sans-Serif" font-size="12.00" fill="#000000">Server C</text>
<polyline fill="none" stroke="#000000" points="134,-82 219.3633,-82 "/>
<text text-anchor="middle" x="176.6816" y="-68.4" font-family="Helvetica,sans-Serif" font-size="12.00" fill="#000000">cap:20</text>
<polyline fill="none" stroke="#000000" points="134,-62 219.3633,-62 "/>
<text text-anchor="middle" x="176.6816" y="-48.4" font-family="Helvetica,sans-Serif" font-size="12.00" fill="#000000">http://rpc.s3..</text>
</g>
<!-- sc&#45;&gt;C -->
<g id="edge3" class="edge">
<title>sc:f2&#45;&gt;C</title>
<path fill="none" stroke="#000000" d="M219.6816,-52C233.6959,-52 248.4785,-55.7246 261.3484,-60.2986"/>
<polygon fill="#000000" stroke="#000000" points="260.1827,-63.6001 270.7729,-63.9143 262.6901,-57.0645 260.1827,-63.6001"/>
</g>
<!-- ca -->
<g id="node7" class="node">
<title>ca</title>
<ellipse fill="none" stroke="#000000" cx="51" cy="-250" rx="27" ry="18"/>
<text text-anchor="middle" x="51" y="-246.4" font-family="Helvetica,sans-Serif" font-size="12.00" fill="#000000">a</text>
</g>
<!-- ca&#45;&gt;sa -->
<g id="edge4" class="edge">
<title>ca:f0&#45;&gt;sa:f0</title>
<path fill="none" stroke="#000000" d="M78.1846,-250C91.4161,-250 107.8238,-250 123.5147,-250"/>
<polygon fill="#000000" stroke="#000000" points="123.6817,-253.5001 133.6816,-250 123.6816,-246.5001 123.6817,-253.5001"/>
</g>
<!-- cb -->
<g id="node8" class="node">
<title>cb</title>
<ellipse fill="none" stroke="#000000" cx="51" cy="-196" rx="27" ry="18"/>
<text text-anchor="middle" x="51" y="-192.4" font-family="Helvetica,sans-Serif" font-size="12.00" fill="#000000">b</text>
</g>
<!-- cb&#45;&gt;sb -->
<g id="edge5" class="edge">
<title>cb:f0&#45;&gt;sb:f0</title>
<path fill="none" stroke="#000000" d="M73.2636,-185.3977C87.0492,-179.6486 105.5308,-173.3512 123.6709,-171.5236"/>
<polygon fill="#000000" stroke="#000000" points="123.8781,-175.0176 133.6816,-171 123.5124,-168.0272 123.8781,-175.0176"/>
</g>
<!-- cc -->
<g id="node9" class="node">
<title>cc</title>
<ellipse fill="none" stroke="#000000" cx="51" cy="-142" rx="27" ry="18"/>
<text text-anchor="middle" x="51" y="-138.4" font-family="Helvetica,sans-Serif" font-size="12.00" fill="#000000">c</text>
</g>
<!-- cc&#45;&gt;sc -->
<g id="edge7" class="edge">
<title>cc:f0&#45;&gt;sc:f0</title>
<path fill="none" stroke="#000000" d="M73.204,-131.4808C82.5931,-126.7763 93.5262,-120.954 103,-115 113.822,-108.1987 116.0831,-98.6618 123.727,-94.3185"/>
<polygon fill="#000000" stroke="#000000" points="124.7363,-97.6772 133.6816,-92 123.1484,-90.8597 124.7363,-97.6772"/>
</g>
<!-- cd -->
<g id="node10" class="node">
<title>cd</title>
<ellipse fill="none" stroke="#000000" cx="51" cy="-88" rx="27" ry="18"/>
<text text-anchor="middle" x="51" y="-84.4" font-family="Helvetica,sans-Serif" font-size="12.00" fill="#000000">d</text>
</g>
<!-- cd&#45;&gt;sc -->
<g id="edge6" class="edge">
<title>cd:f0&#45;&gt;sc:f0</title>
<path fill="none" stroke="#000000" d="M78.1686,-89.9766C91.3956,-90.8032 107.8024,-91.6352 123.505,-91.9076"/>
<polygon fill="#000000" stroke="#000000" points="123.6502,-95.4089 133.6816,-92 123.7139,-88.4092 123.6502,-95.4089"/>
</g>
<!-- ce -->
<g id="node11" class="node">
<title>ce</title>
<ellipse fill="none" stroke="#000000" cx="51" cy="-34" rx="27" ry="18"/>
<text text-anchor="middle" x="51" y="-30.4" font-family="Helvetica,sans-Serif" font-size="12.00" fill="#000000">e</text>
</g>
<!-- ce&#45;&gt;sc -->
<g id="edge8" class="edge">
<title>ce:f0&#45;&gt;sc:f0</title>
<path fill="none" stroke="#000000" d="M73.6565,-43.8547C83.1221,-48.447 93.99,-54.3651 103,-61 115.1948,-69.9801 115.2302,-83.8497 123.9056,-89.4879"/>
<polygon fill="#000000" stroke="#000000" points="123.1252,-92.901 133.6816,-92 124.8674,-86.1213 123.1252,-92.901"/>
</g>
</g>
</svg>
