<?xml version="1.0" encoding="UTF-8" standalone="no"?>
<!DOCTYPE svg PUBLIC "-//W3C//DTD SVG 1.1//EN"
 "http://www.w3.org/Graphics/SVG/1.1/DTD/svg11.dtd">
<!-- Generated by graphviz version 2.40.1 (20161225.0304)
 -->
<!-- Title: minimal_nonplanar_graphs Pages: 1 -->
<svg width="286pt" height="536pt"
 viewBox="0.00 0.00 286.07 536.00" xmlns="http://www.w3.org/2000/svg" xmlns:xlink="http://www.w3.org/1999/xlink">
<g id="graph0" class="graph" transform="scale(1 1) rotate(0) translate(4 532)">
<title>minimal_nonplanar_graphs</title>
<polygon fill="#ffffff" stroke="transparent" points="-4,4 -4,-532 282.0703,-532 282.0703,4 -4,4"/>
<g id="clust2" class="cluster">
<title>cluster_client_registry</title>
<polygon fill="#add8e6" stroke="#add8e6" points="133.3633,-48 133.3633,-306 270.0703,-306 270.0703,-48 133.3633,-48"/>
<text text-anchor="middle" x="201.7168" y="-290.8" font-family="Helvetica,sans-Serif" font-size="14.00" fill="#000000">ServiceRegistry</text>
</g>
<g id="clust3" class="cluster">
<title>cluster_registry</title>
<polygon fill="#add8e6" stroke="#add8e6" points="5,-8 5,-326 113.3633,-326 113.3633,-8 5,-8"/>
<text text-anchor="middle" x="59.1816" y="-310.8" font-family="Helvetica,sans-Serif" font-size="14.00" fill="#000000">ServerRegistry</text>
</g>
<g id="clust4" class="cluster">
<title>cluster_cloud</title>
<polygon fill="#add8e6" stroke="#add8e6" points="12.5906,-334 12.5906,-520 239.7217,-520 239.7217,-334 12.5906,-334"/>
<text text-anchor="middle" x="126.1562" y="-504.8" font-family="Helvetica,sans-Serif" font-size="14.00" fill="#000000">cloud</text>
</g>
<!-- M -->
<g id="node1" class="node">
<title>M</title>
<polygon fill="none" stroke="#000000" points="143.376,-136 143.376,-196 260.0576,-196 260.0576,-136 143.376,-136"/>
<text text-anchor="middle" x="201.7168" y="-182.4" font-family="Helvetica,sans-Serif" font-size="12.00" fill="#000000">Matrix</text>
<polyline fill="none" stroke="#000000" points="143.376,-176 260.0576,-176 "/>
<text text-anchor="middle" x="201.7168" y="-162.4" font-family="Helvetica,sans-Serif" font-size="12.00" fill="#000000">matrix/matrix:latest</text>
<polyline fill="none" stroke="#000000" points="143.376,-156 260.0576,-156 "/>
<text text-anchor="middle" x="201.7168" y="-142.4" font-family="Helvetica,sans-Serif" font-size="12.00" fill="#000000">wasm</text>
</g>
<!-- sa -->
<g id="node4" class="node">
<title>sa</title>
<polygon fill="none" stroke="#000000" points="16,-215 16,-295 101.3633,-295 101.3633,-215 16,-215"/>
<text text-anchor="middle" x="58.6816" y="-281.4" font-family="Helvetica,sans-Serif" font-size="12.00" fill="#000000">Server A</text>
<polyline fill="none" stroke="#000000" points="16,-275 101.3633,-275 "/>
<text text-anchor="middle" x="58.6816" y="-261.4" font-family="Helvetica,sans-Serif" font-size="12.00" fill="#000000">offer</text>
<polyline fill="none" stroke="#000000" points="16,-255 101.3633,-255 "/>
<text text-anchor="middle" x="58.6816" y="-241.4" font-family="Helvetica,sans-Serif" font-size="12.00" fill="#000000">rewards</text>
<polyline fill="none" stroke="#000000" points="16,-235 101.3633,-235 "/>
<text text-anchor="middle" x="58.6816" y="-221.4" font-family="Helvetica,sans-Serif" font-size="12.00" fill="#000000">http://rpc.s1..</text>
</g>
<!-- M&#45;&gt;sa -->
<g id="edge5" class="edge">
<title>M:f0&#45;&gt;sa:rewards</title>
<path fill="none" stroke="#ffa500" d="M143.7168,-186C115.5446,-186 129.1412,-231.1719 111.4113,-242.4648"/>
<polygon fill="#ffa500" stroke="#ffa500" points="110.476,-239.0916 101.6816,-245 112.2411,-245.8654 110.476,-239.0916"/>
</g>
<!-- sb -->
<g id="node5" class="node">
<title>sb</title>
<polygon fill="none" stroke="#000000" points="16,-116 16,-196 101.3633,-196 101.3633,-116 16,-116"/>
<text text-anchor="middle" x="58.6816" y="-182.4" font-family="Helvetica,sans-Serif" font-size="12.00" fill="#000000">Server B</text>
<polyline fill="none" stroke="#000000" points="16,-176 101.3633,-176 "/>
<text text-anchor="middle" x="58.6816" y="-162.4" font-family="Helvetica,sans-Serif" font-size="12.00" fill="#000000">offer</text>
<polyline fill="none" stroke="#000000" points="16,-156 101.3633,-156 "/>
<text text-anchor="middle" x="58.6816" y="-142.4" font-family="Helvetica,sans-Serif" font-size="12.00" fill="#000000">rewards</text>
<polyline fill="none" stroke="#000000" points="16,-136 101.3633,-136 "/>
<text text-anchor="middle" x="58.6816" y="-122.4" font-family="Helvetica,sans-Serif" font-size="12.00" fill="#000000">http://rpc.s2..</text>
</g>
<!-- M&#45;&gt;sb -->
<g id="edge6" class="edge">
<title>M:f0&#45;&gt;sb:rewards</title>
<path fill="none" stroke="#ffa500" d="M143.7168,-186C121.9572,-186 125.3511,-157.5234 111.452,-148.6245"/>
<polygon fill="#ffa500" stroke="#ffa500" points="112.2473,-145.2141 101.6816,-146 110.4313,-151.9745 112.2473,-145.2141"/>
</g>
<!-- S -->
<g id="node2" class="node">
<title>S</title>
<polygon fill="none" stroke="#000000" points="141.3633,-215 141.3633,-275 262.0703,-275 262.0703,-215 141.3633,-215"/>
<text text-anchor="middle" x="201.7168" y="-261.4" font-family="Helvetica,sans-Serif" font-size="12.00" fill="#000000">Search</text>
<polyline fill="none" stroke="#000000" points="141.3633,-255 262.0703,-255 "/>
<text text-anchor="middle" x="201.7168" y="-241.4" font-family="Helvetica,sans-Serif" font-size="12.00" fill="#000000">slockit/search:latest</text>
<polyline fill="none" stroke="#000000" points="141.3633,-235 262.0703,-235 "/>
<text text-anchor="middle" x="201.7168" y="-221.4" font-family="Helvetica,sans-Serif" font-size="12.00" fill="#000000">wasm</text>
</g>
<!-- W -->
<g id="node3" class="node">
<title>W</title>
<polygon fill="none" stroke="#000000" points="157.0342,-57 157.0342,-117 246.3994,-117 246.3994,-57 157.0342,-57"/>
<text text-anchor="middle" x="201.7168" y="-103.4" font-family="Helvetica,sans-Serif" font-size="12.00" fill="#000000">Whisper</text>
<polyline fill="none" stroke="#000000" points="157.0342,-97 246.3994,-97 "/>
<text text-anchor="middle" x="201.7168" y="-83.4" font-family="Helvetica,sans-Serif" font-size="12.00" fill="#000000">whisper:latest</text>
<polyline fill="none" stroke="#000000" points="157.0342,-77 246.3994,-77 "/>
<text text-anchor="middle" x="201.7168" y="-63.4" font-family="Helvetica,sans-Serif" font-size="12.00" fill="#000000">wasm</text>
</g>
<!-- sc -->
<g id="node6" class="node">
<title>sc</title>
<polygon fill="none" stroke="#000000" points="16,-17 16,-97 101.3633,-97 101.3633,-17 16,-17"/>
<text text-anchor="middle" x="58.6816" y="-83.4" font-family="Helvetica,sans-Serif" font-size="12.00" fill="#000000">Server C</text>
<polyline fill="none" stroke="#000000" points="16,-77 101.3633,-77 "/>
<text text-anchor="middle" x="58.6816" y="-63.4" font-family="Helvetica,sans-Serif" font-size="12.00" fill="#000000">offer</text>
<polyline fill="none" stroke="#000000" points="16,-57 101.3633,-57 "/>
<text text-anchor="middle" x="58.6816" y="-43.4" font-family="Helvetica,sans-Serif" font-size="12.00" fill="#000000">rewards</text>
<polyline fill="none" stroke="#000000" points="16,-37 101.3633,-37 "/>
<text text-anchor="middle" x="58.6816" y="-23.4" font-family="Helvetica,sans-Serif" font-size="12.00" fill="#000000">http://rpc.s3..</text>
</g>
<!-- W&#45;&gt;sc -->
<g id="edge7" class="edge">
<title>W:f0&#45;&gt;sc:rewards</title>
<path fill="none" stroke="#ffa500" d="M156.7168,-107C124.4889,-107 134.7153,-59.4072 111.7743,-48.9963"/>
<polygon fill="#ffa500" stroke="#ffa500" points="112.1707,-45.507 101.6816,-47 110.8124,-52.3739 112.1707,-45.507"/>
</g>
<!-- sa&#45;&gt;M -->
<g id="edge1" class="edge">
<title>sa:offer&#45;&gt;M:f0</title>
<path fill="none" stroke="#006400" d="M101.6816,-265C137.4144,-265 110.7666,-201.232 133.8283,-188.2791"/>
<polygon fill="#006400" stroke="#006400" points="134.7584,-191.6566 143.7168,-186 133.1862,-184.8354 134.7584,-191.6566"/>
</g>
<!-- sa&#45;&gt;S -->
<g id="edge2" class="edge">
<title>sa:offer&#45;&gt;S:f0</title>
<path fill="none" stroke="#006400" d="M101.6816,-265C115.5827,-265 121.3387,-265 131.6762,-265"/>
<polygon fill="#006400" stroke="#006400" points="131.7168,-268.5001 141.7168,-265 131.7168,-261.5001 131.7168,-268.5001"/>
</g>
<!-- sb&#45;&gt;W -->
<g id="edge3" class="edge">
<title>sb:offer&#45;&gt;W:f0</title>
<path fill="none" stroke="#006400" d="M101.6816,-166C133.619,-166 123.8783,-119.2004 146.6986,-108.963"/>
<polygon fill="#006400" stroke="#006400" points="147.5765,-112.3577 156.7168,-107 146.2304,-105.4883 147.5765,-112.3577"/>
</g>
<!-- sc&#45;&gt;W -->
<g id="edge4" class="edge">
<title>sc:offer&#45;&gt;W:f0</title>
<path fill="none" stroke="#006400" d="M101.6816,-67C128.0219,-67 127.2886,-97.3522 146.6489,-105.1773"/>
<polygon fill="#006400" stroke="#006400" points="146.2532,-108.6625 156.7168,-107 147.5003,-101.7745 146.2532,-108.6625"/>
</g>
<!-- A -->
<g id="node7" class="node">
<title>A</title>
<ellipse fill="#ffffff" stroke="#ffffff" cx="58.6816" cy="-469" rx="37.0975" ry="18"/>
<text text-anchor="middle" x="58.6816" y="-465.4" font-family="Helvetica,sans-Serif" font-size="12.00" fill="#000000">Server A</text>
</g>
<!-- AM -->
<g id="node8" class="node">
<title>AM</title>
<polygon fill="#ffffff" stroke="#ffffff" points="174.7168,-398 174.7168,-434 228.7168,-434 228.7168,-398 174.7168,-398"/>
<text text-anchor="middle" x="201.7168" y="-412.4" font-family="Helvetica,sans-Serif" font-size="12.00" fill="#000000">Matrix</text>
</g>
<!-- A&#45;&gt;AM -->
<g id="edge8" class="edge">
<title>A&#45;&gt;AM</title>
<path fill="none" stroke="#000000" d="M88.3186,-458.0184C110.6135,-449.7573 141.2925,-438.3895 165.1188,-429.561"/>
<polygon fill="#000000" stroke="#000000" points="166.376,-432.8277 174.5369,-426.0712 163.9438,-426.2638 166.376,-432.8277"/>
</g>
<!-- AS -->
<g id="node9" class="node">
<title>AS</title>
<polygon fill="#ffffff" stroke="#ffffff" points="174.7061,-453 174.7061,-489 228.7275,-489 228.7275,-453 174.7061,-453"/>
<text text-anchor="middle" x="201.7168" y="-467.4" font-family="Helvetica,sans-Serif" font-size="12.00" fill="#000000">Search</text>
</g>
<!-- A&#45;&gt;AS -->
<g id="edge9" class="edge">
<title>A&#45;&gt;AS</title>
<path fill="none" stroke="#000000" d="M96.2624,-469.5255C117.2217,-469.8185 143.2432,-470.1824 164.1932,-470.4753"/>
<polygon fill="#000000" stroke="#000000" points="164.2806,-473.9768 174.3286,-470.617 164.3785,-466.9775 164.2806,-473.9768"/>
</g>
<!-- B -->
<g id="node10" class="node">
<title>B</title>
<ellipse fill="#ffffff" stroke="#ffffff" cx="58.6816" cy="-414" rx="37.8867" ry="18"/>
<text text-anchor="middle" x="58.6816" y="-410.4" font-family="Helvetica,sans-Serif" font-size="12.00" fill="#000000">Server B</text>
</g>
<!-- BW -->
<g id="node12" class="node">
<title>BW</title>
<polygon fill="#ffffff" stroke="#ffffff" points="171.7119,-343 171.7119,-379 231.7217,-379 231.7217,-343 171.7119,-343"/>
<text text-anchor="middle" x="201.7168" y="-357.4" font-family="Helvetica,sans-Serif" font-size="12.00" fill="#000000">Whisper</text>
</g>
<!-- B&#45;&gt;BW -->
<g id="edge10" class="edge">
<title>B&#45;&gt;BW</title>
<path fill="none" stroke="#000000" d="M88.6665,-402.8895C109.8835,-395.0278 138.5637,-384.4006 161.7272,-375.8177"/>
<polygon fill="#000000" stroke="#000000" points="163.1179,-379.035 171.2788,-372.2784 160.6857,-372.4711 163.1179,-379.035"/>
</g>
<!-- C -->
<g id="node11" class="node">
<title>C</title>
<ellipse fill="#ffffff" stroke="#ffffff" cx="58.6816" cy="-360" rx="38.1822" ry="18"/>
<text text-anchor="middle" x="58.6816" y="-356.4" font-family="Helvetica,sans-Serif" font-size="12.00" fill="#000000">Server C</text>
</g>
<!-- C&#45;&gt;BW -->
<g id="edge11" class="edge">
<title>C&#45;&gt;BW</title>
<path fill="none" stroke="#000000" d="M97.0124,-360.268C116.8844,-360.4069 141.1488,-360.5766 161.3138,-360.7175"/>
<polygon fill="#000000" stroke="#000000" points="161.4158,-364.2182 171.4401,-360.7883 161.4649,-357.2184 161.4158,-364.2182"/>
</g>
</g>
</svg>
