<?xml version="1.0" encoding="UTF-8" standalone="no"?>
<!DOCTYPE svg PUBLIC "-//W3C//DTD SVG 1.1//EN"
 "http://www.w3.org/Graphics/SVG/1.1/DTD/svg11.dtd">
<!-- Generated by graphviz version 2.40.1 (20161225.0304)
 -->
<!-- Title: minimal_nonplanar_graphs Pages: 1 -->
<svg width="391pt" height="314pt"
 viewBox="0.00 0.00 390.50 314.00" xmlns="http://www.w3.org/2000/svg" xmlns:xlink="http://www.w3.org/1999/xlink">
<g id="graph0" class="graph" transform="scale(1 1) rotate(0) translate(4 310)">
<title>minimal_nonplanar_graphs</title>
<polygon fill="#ffffff" stroke="transparent" points="-4,4 -4,-310 386.5,-310 386.5,4 -4,4"/>
<g id="clust1" class="cluster">
<title>cluster_1</title>
<polygon fill="#add8e6" stroke="#add8e6" points="18.4337,-8 18.4337,-298 364.0663,-298 364.0663,-8 18.4337,-8"/>
<text text-anchor="middle" x="191.25" y="-282.8" font-family="Helvetica,sans-Serif" font-size="14.00" fill="#000000">Verifying Nodes</text>
</g>
<!-- A -->
<g id="node1" class="node">
<title>A</title>
<ellipse fill="#ffffff" stroke="#ffffff" cx="197.7771" cy="-250" rx="27" ry="18"/>
<text text-anchor="middle" x="197.7771" y="-245.8" font-family="Helvetica,sans-Serif" font-size="14.00" fill="#000000">A</text>
</g>
<!-- B -->
<g id="node2" class="node">
<title>B</title>
<ellipse fill="#ffffff" stroke="#ffffff" cx="144.7771" cy="-196" rx="27" ry="18"/>
<text text-anchor="middle" x="144.7771" y="-191.8" font-family="Helvetica,sans-Serif" font-size="14.00" fill="#000000">B</text>
</g>
<!-- A&#45;&gt;B -->
<g id="edge1" class="edge">
<title>A&#45;&gt;B</title>
<path fill="none" stroke="#000000" d="M179.0691,-236.9281C173.4978,-231.9495 167.4761,-226.1009 162.0103,-220.4074"/>
<polygon fill="#000000" stroke="#000000" points="164.3595,-217.7932 154.9958,-212.8361 159.2245,-222.5505 164.3595,-217.7932"/>
</g>
<!-- C -->
<g id="node3" class="node">
<title>C</title>
<ellipse fill="#ffffff" stroke="#ffffff" cx="144.7771" cy="-34" rx="27" ry="18"/>
<text text-anchor="middle" x="144.7771" y="-29.8" font-family="Helvetica,sans-Serif" font-size="14.00" fill="#000000">C</text>
</g>
<!-- A&#45;&gt;C -->
<g id="edge2" class="edge">
<title>A&#45;&gt;C</title>
<path fill="none" stroke="#000000" d="M170.8424,-248.175C147.2859,-245.0646 115.058,-236.6647 99.7771,-214 67.2582,-165.7678 99.414,-94.8063 123.8113,-58.0486"/>
<polygon fill="#000000" stroke="#000000" points="126.9435,-59.6768 129.8028,-49.4751 121.2057,-55.667 126.9435,-59.6768"/>
</g>
<!-- D -->
<g id="node4" class="node">
<title>D</title>
<ellipse fill="#ffffff" stroke="#ffffff" cx="190.7771" cy="-88" rx="27" ry="18"/>
<text text-anchor="middle" x="190.7771" y="-83.8" font-family="Helvetica,sans-Serif" font-size="14.00" fill="#000000">D</text>
</g>
<!-- A&#45;&gt;D -->
<g id="edge3" class="edge">
<title>A&#45;&gt;D</title>
<path fill="none" stroke="#000000" d="M192.5687,-232.0442C188.5688,-203.9455 185.9358,-149.3577 186.7337,-116.0442"/>
<polygon fill="#000000" stroke="#000000" points="190.2316,-116.1625 187.1159,-106.0362 183.2367,-115.8953 190.2316,-116.1625"/>
</g>
<!-- E -->
<g id="node5" class="node">
<title>E</title>
<ellipse fill="#ffffff" stroke="#ffffff" cx="283.7771" cy="-142" rx="27" ry="18"/>
<text text-anchor="middle" x="283.7771" y="-137.8" font-family="Helvetica,sans-Serif" font-size="14.00" fill="#000000">E</text>
</g>
<!-- A&#45;&gt;E -->
<g id="edge4" class="edge">
<title>A&#45;&gt;E</title>
<path fill="none" stroke="#000000" d="M217.2729,-237.524C227.2132,-231.6447 238.6749,-223.7551 246.7771,-214 257.7082,-200.8388 264.6978,-182.9167 270.0733,-168.2461"/>
<polygon fill="#000000" stroke="#000000" points="273.4141,-169.3013 273.5655,-158.7075 266.8408,-166.8946 273.4141,-169.3013"/>
</g>
<!-- B&#45;&gt;A -->
<g id="edge5" class="edge">
<title>B&#45;&gt;A</title>
<path fill="none" stroke="#000000" d="M163.7988,-209.3527C169.3257,-214.3089 175.2747,-220.0975 180.6723,-225.7264"/>
<polygon fill="#000000" stroke="#000000" points="178.238,-228.2489 187.5994,-233.2101 183.3751,-223.4938 178.238,-228.2489"/>
</g>
<!-- B&#45;&gt;C -->
<g id="edge6" class="edge">
<title>B&#45;&gt;C</title>
<path fill="none" stroke="#000000" d="M140.3445,-178.0442C137.5588,-149.9455 137.2846,-95.3577 139.5219,-62.0442"/>
<polygon fill="#000000" stroke="#000000" points="143.0136,-62.2873 140.3366,-52.0362 136.0367,-61.7193 143.0136,-62.2873"/>
</g>
<!-- B&#45;&gt;D -->
<g id="edge7" class="edge">
<title>B&#45;&gt;D</title>
<path fill="none" stroke="#000000" d="M144.0413,-177.7594C147.7407,-163.0889 155.7871,-142.024 163.7771,-124 165.6108,-119.8637 167.6683,-115.5167 169.8649,-111.3302"/>
<polygon fill="#000000" stroke="#000000" points="172.9494,-112.9867 174.8627,-102.566 166.8686,-109.5191 172.9494,-112.9867"/>
</g>
<!-- B&#45;&gt;E -->
<g id="edge8" class="edge">
<title>B&#45;&gt;E</title>
<path fill="none" stroke="#000000" d="M166.7353,-185.3313C189.0913,-176.0102 223.7679,-162.5294 249.6641,-153.0865"/>
<polygon fill="#000000" stroke="#000000" points="250.8929,-156.3641 259.1151,-149.6822 248.5207,-149.7783 250.8929,-156.3641"/>
</g>
<!-- C&#45;&gt;A -->
<g id="edge9" class="edge">
<title>C&#45;&gt;A</title>
<path fill="none" stroke="#000000" d="M138.4667,-51.5392C121.7101,-85.7993 83.215,-162.7373 117.7771,-214 127.8853,-228.9925 145.4089,-237.7431 161.563,-242.8498"/>
<polygon fill="#000000" stroke="#000000" points="160.7932,-246.2686 171.3658,-245.5818 162.6725,-239.5255 160.7932,-246.2686"/>
</g>
<!-- C&#45;&gt;B -->
<g id="edge10" class="edge">
<title>C&#45;&gt;B</title>
<path fill="none" stroke="#000000" d="M149.2176,-52.0362C151.9986,-80.1854 152.268,-134.7781 150.0259,-168.051"/>
<polygon fill="#000000" stroke="#000000" points="146.5354,-167.7924 149.2097,-178.0442 153.5122,-168.3623 146.5354,-167.7924"/>
</g>
<!-- C&#45;&gt;D -->
<g id="edge11" class="edge">
<title>C&#45;&gt;D</title>
<path fill="none" stroke="#000000" d="M162.4657,-47.7575C166.9366,-52.3194 171.6501,-57.5517 175.9644,-62.7012"/>
<polygon fill="#000000" stroke="#000000" points="173.3318,-65.0128 182.3233,-70.6168 178.789,-60.6288 173.3318,-65.0128"/>
</g>
<!-- C&#45;&gt;E -->
<g id="edge12" class="edge">
<title>C&#45;&gt;E</title>
<path fill="none" stroke="#000000" d="M170.7134,-39.4033C190.3282,-45.0527 216.5781,-55.1787 235.7771,-70 251.8715,-82.4246 266.0762,-100.3385 275.1672,-115.1891"/>
<polygon fill="#000000" stroke="#000000" points="272.1635,-116.9877 280.138,-123.9633 278.2541,-113.5373 272.1635,-116.9877"/>
</g>
<!-- D&#45;&gt;A -->
<g id="edge13" class="edge">
<title>D&#45;&gt;A</title>
<path fill="none" stroke="#000000" d="M195.997,-106.0362C199.9943,-134.1854 202.6226,-188.7781 201.8182,-222.051"/>
<polygon fill="#000000" stroke="#000000" points="198.3209,-221.917 201.4338,-232.0442 205.3157,-222.1862 198.3209,-221.917"/>
</g>
<!-- D&#45;&gt;B -->
<g id="edge14" class="edge">
<title>D&#45;&gt;B</title>
<path fill="none" stroke="#000000" d="M189.8703,-106.1576C187.4399,-111.8205 184.3824,-118.1229 181.7771,-124 174.9977,-139.293 168.1778,-156.7752 161.9252,-170.6832"/>
<polygon fill="#000000" stroke="#000000" points="158.5855,-169.5591 157.4814,-180.0963 164.9156,-172.5476 158.5855,-169.5591"/>
</g>
<!-- D&#45;&gt;C -->
<g id="edge15" class="edge">
<title>D&#45;&gt;C</title>
<path fill="none" stroke="#000000" d="M172.9427,-74.0937C168.4497,-69.5 163.7194,-64.2391 159.4007,-59.0727"/>
<polygon fill="#000000" stroke="#000000" points="162.0303,-56.7572 153.0461,-51.1416 156.5675,-61.1341 162.0303,-56.7572"/>
</g>
<!-- D&#45;&gt;E -->
<g id="edge16" class="edge">
<title>D&#45;&gt;E</title>
<path fill="none" stroke="#000000" d="M213.5867,-98.1075C226.8263,-105.0453 243.4218,-114.4704 257.2175,-122.8084"/>
<polygon fill="#000000" stroke="#000000" points="255.4635,-125.8385 265.8155,-128.0937 259.1292,-119.8751 255.4635,-125.8385"/>
</g>
<!-- E&#45;&gt;A -->
<g id="edge17" class="edge">
<title>E&#45;&gt;A</title>
<path fill="none" stroke="#000000" d="M287.2724,-159.9211C285.3287,-175.5796 277.888,-198.2143 264.7771,-214 256.233,-224.2872 243.9529,-232.4998 232.1194,-238.4681"/>
<polygon fill="#000000" stroke="#000000" points="230.4158,-235.3996 222.8049,-242.7701 233.3509,-241.7545 230.4158,-235.3996"/>
</g>
<!-- E&#45;&gt;B -->
<g id="edge18" class="edge">
<title>E&#45;&gt;B</title>
<path fill="none" stroke="#000000" d="M261.6253,-152.7494C239.2077,-162.0906 204.5405,-175.5644 178.6986,-184.9833"/>
<polygon fill="#000000" stroke="#000000" points="177.4937,-181.6971 169.2705,-188.3776 179.8649,-188.2833 177.4937,-181.6971"/>
</g>
<!-- E&#45;&gt;C -->
<g id="edge19" class="edge">
<title>E&#45;&gt;C</title>
<path fill="none" stroke="#000000" d="M268.3687,-126.9776C256.0457,-111.0327 238.4738,-85.9775 217.7771,-70 205.596,-60.5964 190.5766,-53.0829 177.2546,-47.4036"/>
<polygon fill="#000000" stroke="#000000" points="178.5,-44.1316 167.9189,-43.5915 175.8537,-50.6122 178.5,-44.1316"/>
</g>
<!-- E&#45;&gt;D -->
<g id="edge20" class="edge">
<title>E&#45;&gt;D</title>
<path fill="none" stroke="#000000" d="M260.8731,-131.843C247.5839,-124.8758 230.9366,-115.4172 217.1337,-107.0688"/>
<polygon fill="#000000" stroke="#000000" points="218.889,-104.0395 208.5378,-101.7804 215.221,-110.0015 218.889,-104.0395"/>
</g>
</g>
</svg>
